<svg width="114" height="39" viewBox="0 0 114 39" fill="none" xmlns="http://www.w3.org/2000/svg">
<path d="M11.153 27.0495C8.87848 27.0495 6.90017 26.6393 5.21814 25.8187C3.5361 24.9791 2.2459 23.796 1.34754 22.2694C0.44918 20.7428 0 18.9681 0 16.9453C0 14.1402 0.525636 11.6499 1.57691 9.4745C2.6473 7.29908 4.09041 5.61982 5.90624 4.4367C7.72208 3.2345 9.73861 2.63339 11.9558 2.63339C14.0202 2.63339 15.5875 3.16771 16.6579 4.23633C17.7283 5.28587 18.2635 6.6789 18.2635 8.41541C18.2635 9.57945 18.0532 10.5145 17.6327 11.2206C17.2313 11.9266 16.6483 12.2796 15.8838 12.2796C15.3486 12.2796 14.9281 12.1556 14.6222 11.9075C14.3164 11.6595 14.1635 11.2969 14.1635 10.8198C14.1635 10.6481 14.2017 10.3332 14.2782 9.87523C14.3929 9.30275 14.4502 8.84477 14.4502 8.50129C14.4502 6.76477 13.5232 5.89651 11.6691 5.89651C10.4076 5.89651 9.20342 6.30679 8.05657 7.12734C6.90973 7.94789 5.9827 9.15963 5.27548 10.7626C4.56826 12.3464 4.21465 14.2356 4.21465 16.4301C4.21465 18.72 4.85497 20.4947 6.13561 21.7541C7.41625 22.9945 9.30854 23.6147 11.8125 23.6147C13.0549 23.6147 14.3069 23.462 15.5684 23.1567C16.849 22.8323 18.2635 22.3457 19.8117 21.6969C20.0984 21.5824 20.3373 21.5251 20.5285 21.5251C20.8343 21.5251 21.0637 21.6396 21.2166 21.8686C21.3695 22.0976 21.446 22.3934 21.446 22.756C21.446 23.92 20.8152 24.7787 19.5537 25.3321C18.1966 25.9237 16.7821 26.3626 15.3104 26.6488C13.8577 26.916 12.4719 27.0495 11.153 27.0495Z" fill="#31363D"/>
<path d="M33.5389 18.1189C33.7874 18.1189 33.9785 18.2429 34.1123 18.491C34.2461 18.7391 34.313 19.0539 34.313 19.4356C34.313 20.3516 34.0358 20.8954 33.4815 21.0672C32.3347 21.4679 31.0732 21.6969 29.697 21.7541C29.3338 23.3571 28.617 24.6451 27.5466 25.6184C26.4762 26.5725 25.2625 27.0495 23.9054 27.0495C22.7586 27.0495 21.7742 26.7728 20.9523 26.2194C20.1495 25.6661 19.5378 24.9314 19.1173 24.0154C18.6968 23.0994 18.4866 22.1072 18.4866 21.0385C18.4866 19.5883 18.7637 18.3002 19.318 17.1743C19.8723 16.0294 20.6369 15.142 21.6117 14.5123C22.5865 13.8635 23.6665 13.5391 24.8515 13.5391C26.3042 13.5391 27.4702 14.0448 28.3494 15.0561C29.2478 16.0484 29.7734 17.2793 29.9263 18.7486C30.8247 18.6914 31.8951 18.5006 33.1375 18.1761C33.2904 18.138 33.4242 18.1189 33.5389 18.1189ZM24.1348 24.0154C24.7464 24.0154 25.2721 23.7673 25.7117 23.2712C26.1704 22.775 26.4762 22.0594 26.6292 21.1244C26.0366 20.7237 25.5779 20.1989 25.2529 19.5501C24.9471 18.9013 24.7942 18.2143 24.7942 17.4892C24.7942 17.1839 24.8229 16.8785 24.8802 16.5732H24.7369C23.9723 16.5732 23.332 16.9453 22.8159 17.6895C22.3189 18.4147 22.0705 19.4451 22.0705 20.7809C22.0705 21.8305 22.2712 22.6319 22.6725 23.1853C23.0931 23.7387 23.5805 24.0154 24.1348 24.0154Z" fill="#31363D"/>
<path d="M34.7767 27.0495C33.9165 27.0495 33.2093 26.6583 32.655 25.876C32.1198 25.0745 31.8522 24.0822 31.8522 22.8991C31.8522 21.4679 31.9478 20.1607 32.1389 18.9776C32.3301 17.7754 32.6455 16.5064 33.0851 15.1706C33.2762 14.5982 33.5438 14.1879 33.8879 13.9398C34.2319 13.6917 34.7767 13.5677 35.5221 13.5677C35.9426 13.5677 36.2293 13.6345 36.3822 13.7681C36.5543 13.9017 36.6403 14.102 36.6403 14.3692C36.6403 14.5218 36.5352 15.0371 36.3249 15.9149C36.1338 16.6209 35.9809 17.2602 35.8662 17.8327C35.4839 19.8363 35.2927 21.1721 35.2927 21.84C35.2927 22.2407 35.3405 22.527 35.4361 22.6987C35.5317 22.8514 35.6846 22.9277 35.8948 22.9277C36.1816 22.9277 36.5352 22.6415 36.9557 22.069C37.3953 21.4965 37.854 20.6283 38.3319 19.4642C38.8288 18.3002 39.3067 16.869 39.7654 15.1706C39.9183 14.5982 40.1477 14.1879 40.4535 13.9398C40.7785 13.6917 41.2563 13.5677 41.8871 13.5677C42.3267 13.5677 42.6325 13.625 42.8046 13.7394C42.9766 13.8349 43.0626 14.0257 43.0626 14.3119C43.0626 14.789 42.8237 16.0961 42.3458 18.2334C41.8106 20.676 41.543 22.1835 41.543 22.756C41.543 23.1185 41.6195 23.4048 41.7724 23.6147C41.9253 23.8055 42.126 23.9009 42.3745 23.9009C42.7568 23.9009 43.206 23.6719 43.722 23.2139C44.2572 22.7369 44.9645 21.9736 45.8437 20.924C46.0731 20.6569 46.3311 20.5233 46.6178 20.5233C46.8663 20.5233 47.0574 20.6378 47.1912 20.8668C47.3442 21.0958 47.4206 21.4106 47.4206 21.8114C47.4206 22.5747 47.239 23.1662 46.8759 23.5861C46.054 24.5974 45.1652 25.4275 44.2095 26.0763C43.2729 26.7251 42.2025 27.0495 40.9983 27.0495C40.0808 27.0495 39.4023 26.6965 38.9626 25.9905C38.5421 25.2844 38.3319 24.2921 38.3319 23.0136C38.0069 24.3112 37.5195 25.313 36.8697 26.0191C36.2198 26.7061 35.5221 27.0495 34.7767 27.0495Z" fill="#31363D"/>
<path d="M50.572 27.0495C48.6988 27.0495 47.2366 26.5248 46.1853 25.4752C45.1531 24.4066 44.6371 23.004 44.6371 21.2675C44.6371 19.7218 44.9429 18.367 45.5545 17.2029C46.1662 16.0389 46.9594 15.142 47.9342 14.5123C48.909 13.8826 49.9316 13.5677 51.002 13.5677C52.0533 13.5677 52.8657 13.8826 53.4391 14.5123C54.0316 15.1229 54.3279 15.9149 54.3279 16.8881C54.3279 17.6895 54.1463 18.367 53.7831 18.9204C53.4391 19.4738 52.9803 19.7505 52.4069 19.7505C52.0437 19.7505 51.7475 19.6646 51.5181 19.4928C51.3079 19.3211 51.2027 19.0826 51.2027 18.7772C51.2027 18.6437 51.2218 18.491 51.2601 18.3193C51.2983 18.1475 51.327 18.0235 51.3461 17.9472C51.4417 17.6609 51.4894 17.3938 51.4894 17.1457C51.4894 16.8976 51.4225 16.7068 51.2887 16.5732C51.1741 16.4396 51.002 16.3728 50.7727 16.3728C50.333 16.3728 49.9221 16.5732 49.5398 16.9739C49.1575 17.3556 48.8517 17.8804 48.6223 18.5483C48.393 19.2161 48.2783 19.9508 48.2783 20.7523C48.2783 22.9659 49.2435 24.0727 51.1741 24.0727C51.9577 24.0727 52.7988 23.815 53.6971 23.2998C54.6146 22.7655 55.5129 21.9736 56.3922 20.924C56.6216 20.6569 56.8796 20.5233 57.1663 20.5233C57.4148 20.5233 57.6059 20.6378 57.7397 20.8668C57.8927 21.0958 57.9691 21.4106 57.9691 21.8114C57.9691 22.5365 57.7875 23.1281 57.4244 23.5861C56.526 24.6928 55.446 25.5516 54.1845 26.1622C52.9421 26.7538 51.7379 27.0495 50.572 27.0495Z" fill="#31363D"/>
<path d="M65.801 13.5677C66.4127 13.5677 66.8714 13.7299 67.1772 14.0543C67.5022 14.3596 67.6646 14.8176 67.6646 15.4283C67.6646 15.9244 67.5595 16.8595 67.3493 18.2334C67.1581 19.3974 67.0052 20.5042 66.8905 21.5538C66.7758 22.5842 66.7185 23.7387 66.7185 25.0172C66.7185 25.7424 66.5656 26.2672 66.2598 26.5916C65.973 26.8969 65.4952 27.0495 64.8262 27.0495C64.1954 27.0495 63.7367 26.8873 63.45 26.5629C63.1633 26.2385 63.0199 25.7519 63.0199 25.1031C63.0199 24.3398 63.1537 23.0804 63.4213 21.3248C63.6507 19.7982 63.7654 18.825 63.7654 18.4051C63.7654 18.0998 63.6602 17.9472 63.45 17.9472C63.2015 17.9472 62.8479 18.2716 62.3892 18.9204C61.9304 19.5501 61.4717 20.3897 61.0129 21.4393C60.5542 22.4888 60.1815 23.5956 59.8948 24.7596C59.6845 25.6565 59.436 26.2672 59.1493 26.5916C58.8817 26.8969 58.4517 27.0495 57.8591 27.0495C57.2666 27.0495 56.827 26.8396 56.5403 26.4198C56.2727 25.9809 56.0911 25.313 55.9955 24.4161C55.8999 23.5193 55.8521 22.2026 55.8521 20.4661C55.8521 17.5273 56.1484 14.4646 56.7409 11.2778C57.3526 8.09101 58.2414 5.41945 59.4074 3.26312C60.5924 1.08771 62.0069 0 63.6507 0C64.5299 0 65.2371 0.381652 65.7723 1.14495C66.3267 1.88917 66.6038 2.86239 66.6038 4.06459C66.6038 5.99193 66.0399 7.9956 64.9122 10.0756C63.7845 12.1365 61.9495 14.5505 59.4074 17.3174C59.35 18.3097 59.3214 19.3306 59.3214 20.3802C59.9521 18.7582 60.6498 17.4415 61.4143 16.4301C62.198 15.3996 62.9626 14.665 63.708 14.2261C64.4726 13.7872 65.1702 13.5677 65.801 13.5677ZM63.0486 2.83376C62.7045 2.83376 62.3223 3.32991 61.9017 4.3222C61.4812 5.29541 61.0703 6.62165 60.6689 8.30092C60.2866 9.9611 59.9712 11.7739 59.7227 13.7394C60.9078 12.3464 61.8826 10.8294 62.6472 9.18826C63.4309 7.54716 63.8227 6.05872 63.8227 4.72294C63.8227 4.11229 63.7558 3.64477 63.622 3.32037C63.4882 2.99596 63.2971 2.83376 63.0486 2.83376Z" fill="#31363D"/>
<path d="M90.124 23.2282C90.2387 23.1901 90.4107 23.171 90.6401 23.171C91.29 23.171 91.6149 23.5908 91.6149 24.4304C91.6149 24.8884 91.5098 25.2796 91.2995 25.604C91.1084 25.9093 90.8026 26.1002 90.3821 26.1765C88.6427 26.5009 86.932 26.8635 85.2499 27.2642L85.1639 27.9512C84.6287 31.7104 83.5583 34.4869 81.9528 36.2807C80.3663 38.0935 78.3784 39 75.9892 39C74.4027 39 73.1699 38.6088 72.2906 37.8264C71.4305 37.0631 71.0004 36.0803 71.0004 34.8781C71.0004 32.8745 71.8988 31.0902 73.6955 29.5255C75.4922 27.9607 78.216 26.5772 81.8667 25.375L82.4402 21.3391C82.5166 20.8811 82.6122 20.2704 82.7269 19.5071C81.8285 21.8734 80.6817 23.6385 79.2864 24.8025C77.891 25.9666 76.3332 26.5486 74.613 26.5486C72.9692 26.5486 71.7172 26.0524 70.8571 25.0602C69.9969 24.0488 69.5669 22.7512 69.5669 21.1673C69.5669 20.4613 69.6433 19.6884 69.7962 18.8488C69.9491 17.9901 70.1881 16.8356 70.513 15.3853C70.7997 14.0686 71.01 13.0191 71.1438 12.2367C71.2967 11.4543 71.3731 10.7578 71.3731 10.1471C71.3731 9.23116 71.0195 8.77318 70.3123 8.77318C69.758 8.77318 69.0986 9.04988 68.334 9.60327C67.5886 10.1376 66.7953 10.9677 65.9543 12.0935C65.6867 12.4561 65.3904 12.6374 65.0655 12.6374C64.7979 12.6374 64.559 12.5134 64.3487 12.2653C64.1576 11.9981 64.062 11.7024 64.062 11.378C64.062 10.7864 64.3296 10.1185 64.8648 9.37428C66.8144 6.70272 69.0986 5.36694 71.7172 5.36694C72.8831 5.36694 73.7911 5.71997 74.4409 6.42603C75.1099 7.13208 75.4444 8.17208 75.4444 9.54603C75.4444 10.5383 75.3489 11.5592 75.1577 12.6088C74.9857 13.6392 74.7181 14.9559 74.3549 16.5589C74.1256 17.513 73.9535 18.2858 73.8388 18.8774C73.7242 19.4499 73.6668 19.9269 73.6668 20.3086C73.6668 21.2818 73.8388 21.9783 74.1829 22.3981C74.527 22.818 75.129 23.0279 75.9892 23.0279C77.0213 23.0279 78.0726 22.4649 79.143 21.3391C80.2325 20.1941 81.2073 18.4671 82.0674 16.1581C82.9467 13.8491 83.5775 11.0249 83.9597 7.68548C84.0553 6.84584 84.2751 6.25428 84.6192 5.9108C84.9632 5.54823 85.4602 5.36694 86.1101 5.36694C87.4481 5.36694 88.117 6.03483 88.117 7.37061C88.117 7.5996 88.1075 7.78089 88.0884 7.91447C87.687 10.7578 87.3143 13.3244 86.9702 15.6143C86.7791 16.9882 86.5688 18.4003 86.3394 19.8506C86.1292 21.3009 85.9189 22.7702 85.7087 24.2587C87.104 23.877 88.5758 23.5335 90.124 23.2282ZM81.4367 28.3805C76.8111 29.9835 74.4983 31.9299 74.4983 34.2198C74.4983 34.7541 74.6608 35.193 74.9857 35.5365C75.3297 35.8991 75.8076 36.0803 76.4192 36.0803C79.0761 36.0803 80.739 33.5805 81.408 28.5809L81.4367 28.3805Z" fill="#FA541C"/>
<path d="M104.476 20.8524C104.725 20.8524 104.916 20.9765 105.05 21.2246C105.184 21.4726 105.25 21.7875 105.25 22.1691C105.25 23.0851 104.973 23.629 104.419 23.8007C103.272 24.2014 102.011 24.4304 100.634 24.4877C100.271 26.0906 99.5545 27.3787 98.4841 28.3519C97.4137 29.306 96.2 29.7831 94.8429 29.7831C93.696 29.7831 92.7117 29.5064 91.8898 28.953C91.087 28.3996 90.4753 27.6649 90.0548 26.749C89.6343 25.833 89.424 24.8407 89.424 23.7721C89.424 22.3218 89.7012 21.0337 90.2555 19.9079C90.8098 18.7629 91.5744 17.8756 92.5492 17.2458C93.524 16.597 94.6039 16.2726 95.789 16.2726C97.2417 16.2726 98.4076 16.7783 99.2869 17.7897C100.185 18.782 100.711 20.0128 100.864 21.4822C101.762 21.4249 102.833 21.2341 104.075 20.9097C104.228 20.8715 104.362 20.8524 104.476 20.8524ZM95.0722 26.749C95.6839 26.749 96.2095 26.5009 96.6491 26.0047C97.1079 25.5086 97.4137 24.793 97.5666 23.858C96.9741 23.4572 96.5153 22.9324 96.1904 22.2836C95.8846 21.6348 95.7317 20.9479 95.7317 20.2227C95.7317 19.9174 95.7603 19.6121 95.8177 19.3068H95.6743C94.9098 19.3068 94.2695 19.6789 93.7534 20.4231C93.2564 21.1482 93.0079 22.1787 93.0079 23.5145C93.0079 24.564 93.2086 25.3655 93.61 25.9189C94.0305 26.4723 94.5179 26.749 95.0722 26.749Z" fill="#FA541C"/>
<path d="M105.771 29.7831C104.873 29.7831 104.147 29.4205 103.592 28.6954C103.057 27.9512 102.79 26.9302 102.79 25.6326C102.79 24.2014 102.885 22.8943 103.076 21.7112C103.268 20.509 103.583 19.24 104.023 17.9042C104.214 17.3317 104.481 16.9214 104.825 16.6734C105.169 16.4253 105.714 16.3013 106.46 16.3013C106.88 16.3013 107.167 16.368 107.32 16.5016C107.492 16.6352 107.578 16.8356 107.578 17.1027C107.578 17.2554 107.473 17.7706 107.262 18.6484C107.071 19.3545 106.918 19.9937 106.804 20.5662C106.421 22.5699 106.23 23.9057 106.23 24.5735C106.23 24.9743 106.278 25.2605 106.374 25.4323C106.469 25.5849 106.622 25.6613 106.832 25.6613C107.119 25.6613 107.482 25.375 107.922 24.8025C108.361 24.211 108.82 23.3332 109.298 22.1691C109.795 20.986 110.263 19.5644 110.703 17.9042C110.856 17.3317 111.085 16.9214 111.391 16.6734C111.716 16.4253 112.194 16.3013 112.825 16.3013C113.245 16.3013 113.541 16.4158 113.713 16.6447C113.904 16.8547 114 17.1791 114 17.618C114 18.095 113.962 18.6293 113.885 19.2209C113.809 19.7934 113.723 20.3849 113.627 20.9956C113.436 22.2168 113.283 23.3332 113.169 24.3446C113.054 25.3369 112.997 26.4723 112.997 27.7508C112.997 28.4759 112.844 29.0007 112.538 29.3251C112.251 29.6304 111.773 29.7831 111.104 29.7831C110.397 29.7831 109.9 29.6018 109.613 29.2392C109.346 28.8576 109.212 28.1324 109.212 27.0638C109.212 26.8539 109.231 26.3864 109.269 25.6613C108.944 26.997 108.457 28.018 107.807 28.724C107.176 29.4301 106.498 29.7831 105.771 29.7831Z" fill="#FA541C"/>
</svg>
