<svg width="255" height="88" viewBox="0 0 255 88" fill="none" xmlns="http://www.w3.org/2000/svg">
<path d="M24.896 60.48C19.8187 60.48 15.4027 59.5627 11.648 57.728C7.89333 55.8507 5.01333 53.2053 3.008 49.792C1.00267 46.3787 0 42.4107 0 37.888C0 31.616 1.17333 26.048 3.52 21.184C5.90933 16.32 9.13067 12.5653 13.184 9.92C17.2373 7.232 21.7387 5.888 26.688 5.888C31.296 5.888 34.7947 7.08267 37.184 9.472C39.5733 11.8187 40.768 14.9333 40.768 18.816C40.768 21.4187 40.2987 23.5093 39.36 25.088C38.464 26.6667 37.1627 27.456 35.456 27.456C34.2613 27.456 33.3227 27.1787 32.64 26.624C31.9573 26.0693 31.616 25.2587 31.616 24.192C31.616 23.808 31.7013 23.104 31.872 22.08C32.128 20.8 32.256 19.776 32.256 19.008C32.256 15.1253 30.1867 13.184 26.048 13.184C23.232 13.184 20.544 14.1013 17.984 15.936C15.424 17.7707 13.3547 20.48 11.776 24.064C10.1973 27.6053 9.408 31.8293 9.408 36.736C9.408 41.856 10.8373 45.824 13.696 48.64C16.5547 51.4133 20.7787 52.8 26.368 52.8C29.1413 52.8 31.936 52.4587 34.752 51.776C37.6107 51.0507 40.768 49.9627 44.224 48.512C44.864 48.256 45.3973 48.128 45.824 48.128C46.5067 48.128 47.0187 48.384 47.36 48.896C47.7013 49.408 47.872 50.0693 47.872 50.88C47.872 53.4827 46.464 55.4027 43.648 56.64C40.6187 57.9627 37.4613 58.944 34.176 59.584C30.9333 60.1813 27.84 60.48 24.896 60.48Z" fill="white"/>
<path d="M74.866 40.512C75.4207 40.512 75.8473 40.7893 76.146 41.344C76.4447 41.8987 76.594 42.6027 76.594 43.456C76.594 45.504 75.9753 46.72 74.738 47.104C72.178 48 69.362 48.512 66.29 48.64C65.4793 52.224 63.8793 55.104 61.49 57.28C59.1007 59.4133 56.3913 60.48 53.362 60.48C50.802 60.48 48.6047 59.8613 46.77 58.624C44.978 57.3867 43.6127 55.744 42.674 53.696C41.7353 51.648 41.266 49.4293 41.266 47.04C41.266 43.7973 41.8847 40.9173 43.122 38.4C44.3593 35.84 46.066 33.856 48.242 32.448C50.418 30.9973 52.8287 30.272 55.474 30.272C58.7167 30.272 61.3193 31.4027 63.282 33.664C65.2873 35.8827 66.4607 38.6347 66.802 41.92C68.8073 41.792 71.1967 41.3653 73.97 40.64C74.3113 40.5547 74.61 40.512 74.866 40.512ZM53.874 53.696C55.2393 53.696 56.4127 53.1413 57.394 52.032C58.418 50.9227 59.1007 49.3227 59.442 47.232C58.1193 46.336 57.0953 45.1627 56.37 43.712C55.6873 42.2613 55.346 40.7253 55.346 39.104C55.346 38.4213 55.41 37.7387 55.538 37.056H55.218C53.5113 37.056 52.082 37.888 50.93 39.552C49.8207 41.1733 49.266 43.4773 49.266 46.464C49.266 48.8107 49.714 50.6027 50.61 51.84C51.5487 53.0773 52.6367 53.696 53.874 53.696Z" fill="white"/>
<path d="M77.629 60.48C75.709 60.48 74.1303 59.6053 72.893 57.856C71.6983 56.064 71.101 53.8453 71.101 51.2C71.101 48 71.3143 45.0773 71.741 42.432C72.1677 39.744 72.8717 36.9067 73.853 33.92C74.2797 32.64 74.877 31.7227 75.645 31.168C76.413 30.6133 77.629 30.336 79.293 30.336C80.2317 30.336 80.8717 30.4853 81.213 30.784C81.597 31.0827 81.789 31.5307 81.789 32.128C81.789 32.4693 81.5543 33.6213 81.085 35.584C80.6583 37.1627 80.317 38.592 80.061 39.872C79.2077 44.352 78.781 47.3387 78.781 48.832C78.781 49.728 78.8877 50.368 79.101 50.752C79.3143 51.0933 79.6557 51.264 80.125 51.264C80.765 51.264 81.5543 50.624 82.493 49.344C83.4743 48.064 84.4983 46.1227 85.565 43.52C86.6743 40.9173 87.741 37.7173 88.765 33.92C89.1063 32.64 89.6183 31.7227 90.301 31.168C91.0263 30.6133 92.093 30.336 93.501 30.336C94.4823 30.336 95.165 30.464 95.549 30.72C95.933 30.9333 96.125 31.36 96.125 32C96.125 33.0667 95.5917 35.9893 94.525 40.768C93.3303 46.2293 92.733 49.6 92.733 50.88C92.733 51.6907 92.9037 52.3307 93.245 52.8C93.5863 53.2267 94.0343 53.44 94.589 53.44C95.4423 53.44 96.445 52.928 97.597 51.904C98.7917 50.8373 100.37 49.1307 102.333 46.784C102.845 46.1867 103.421 45.888 104.061 45.888C104.616 45.888 105.042 46.144 105.341 46.656C105.682 47.168 105.853 47.872 105.853 48.768C105.853 50.4747 105.448 51.7973 104.637 52.736C102.802 54.9973 100.818 56.8533 98.685 58.304C96.5943 59.7547 94.205 60.48 91.517 60.48C89.469 60.48 87.9543 59.6907 86.973 58.112C86.0343 56.5333 85.565 54.3147 85.565 51.456C84.8397 54.3573 83.7517 56.5973 82.301 58.176C80.8503 59.712 79.293 60.48 77.629 60.48Z" fill="white"/>
<path d="M112.887 60.48C108.706 60.48 105.442 59.3067 103.095 56.96C100.791 54.5707 99.6395 51.4347 99.6395 47.552C99.6395 44.096 100.322 41.0667 101.688 38.464C103.053 35.8613 104.823 33.856 106.999 32.448C109.175 31.04 111.458 30.336 113.847 30.336C116.194 30.336 118.007 31.04 119.287 32.448C120.61 33.8133 121.271 35.584 121.271 37.76C121.271 39.552 120.866 41.0667 120.056 42.304C119.288 43.5413 118.263 44.16 116.983 44.16C116.173 44.16 115.512 43.968 115 43.584C114.53 43.2 114.296 42.6667 114.296 41.984C114.296 41.6853 114.338 41.344 114.424 40.96C114.509 40.576 114.573 40.2987 114.616 40.128C114.829 39.488 114.936 38.8907 114.936 38.336C114.936 37.7813 114.786 37.3547 114.487 37.056C114.231 36.7573 113.848 36.608 113.336 36.608C112.354 36.608 111.437 37.056 110.584 37.952C109.73 38.8053 109.047 39.9787 108.535 41.472C108.023 42.9653 107.768 44.608 107.768 46.4C107.768 51.3493 109.922 53.824 114.231 53.824C115.981 53.824 117.858 53.248 119.864 52.096C121.912 50.9013 123.917 49.1307 125.879 46.784C126.391 46.1867 126.968 45.888 127.608 45.888C128.162 45.888 128.589 46.144 128.888 46.656C129.229 47.168 129.4 47.872 129.4 48.768C129.4 50.3893 128.994 51.712 128.184 52.736C126.178 55.2107 123.768 57.1307 120.951 58.496C118.178 59.8187 115.49 60.48 112.887 60.48Z" fill="white"/>
<path d="M146.882 30.336C148.247 30.336 149.271 30.6987 149.954 31.424C150.679 32.1067 151.042 33.1307 151.042 34.496C151.042 35.6053 150.807 37.696 150.338 40.768C149.911 43.3707 149.57 45.8453 149.314 48.192C149.058 50.496 148.93 53.0773 148.93 55.936C148.93 57.5573 148.589 58.7307 147.906 59.456C147.266 60.1387 146.199 60.48 144.706 60.48C143.298 60.48 142.274 60.1173 141.634 59.392C140.994 58.6667 140.674 57.5787 140.674 56.128C140.674 54.4213 140.973 51.6053 141.57 47.68C142.082 44.2667 142.338 42.0907 142.338 41.152C142.338 40.4693 142.103 40.128 141.634 40.128C141.079 40.128 140.29 40.8533 139.266 42.304C138.242 43.712 137.218 45.5893 136.194 47.936C135.17 50.2827 134.338 52.7573 133.698 55.36C133.229 57.3653 132.674 58.7307 132.034 59.456C131.437 60.1387 130.477 60.48 129.154 60.48C127.831 60.48 126.85 60.0107 126.21 59.072C125.613 58.0907 125.207 56.5973 124.994 54.592C124.781 52.5867 124.674 49.6427 124.674 45.76C124.674 39.1893 125.335 32.3413 126.658 25.216C128.023 18.0907 130.007 12.1173 132.61 7.296C135.255 2.432 138.413 0 142.082 0C144.045 0 145.623 0.853334 146.818 2.56C148.055 4.224 148.674 6.4 148.674 9.088C148.674 13.3973 147.415 17.8773 144.898 22.528C142.381 27.136 138.285 32.5333 132.61 38.72C132.482 40.9387 132.418 43.2213 132.418 45.568C133.826 41.9413 135.383 38.9973 137.09 36.736C138.839 34.432 140.546 32.7893 142.21 31.808C143.917 30.8267 145.474 30.336 146.882 30.336ZM140.738 6.336C139.97 6.336 139.117 7.44534 138.178 9.664C137.239 11.84 136.322 14.8053 135.426 18.56C134.573 22.272 133.869 26.3253 133.314 30.72C135.959 27.6053 138.135 24.2133 139.842 20.544C141.591 16.8747 142.466 13.5467 142.466 10.56C142.466 9.19467 142.317 8.14933 142.018 7.424C141.719 6.69867 141.293 6.336 140.738 6.336Z" fill="white"/>
<path d="M201.176 51.936C201.432 51.8507 201.816 51.808 202.328 51.808C203.779 51.808 204.504 52.7467 204.504 54.624C204.504 55.648 204.269 56.5227 203.8 57.248C203.373 57.9307 202.691 58.3573 201.752 58.528C197.869 59.2533 194.051 60.064 190.296 60.96L190.104 62.496C188.909 70.9013 186.52 77.1093 182.936 81.12C179.395 85.1733 174.957 87.2 169.624 87.2C166.083 87.2 163.331 86.3253 161.368 84.576C159.448 82.8693 158.488 80.672 158.488 77.984C158.488 73.504 160.493 69.5147 164.504 66.016C168.515 62.5173 174.595 59.424 182.744 56.736L184.024 47.712C184.195 46.688 184.408 45.3227 184.664 43.616C182.659 48.9067 180.099 52.8533 176.984 55.456C173.869 58.0587 170.392 59.36 166.552 59.36C162.883 59.36 160.088 58.2507 158.168 56.032C156.248 53.7707 155.288 50.8693 155.288 47.328C155.288 45.7493 155.459 44.0213 155.8 42.144C156.141 40.224 156.675 37.6427 157.4 34.4C158.04 31.456 158.509 29.1093 158.808 27.36C159.149 25.6107 159.32 24.0533 159.32 22.688C159.32 20.64 158.531 19.616 156.952 19.616C155.715 19.616 154.243 20.2347 152.536 21.472C150.872 22.6667 149.101 24.5227 147.224 27.04C146.627 27.8507 145.965 28.256 145.24 28.256C144.643 28.256 144.109 27.9787 143.64 27.424C143.213 26.8267 143 26.1653 143 25.44C143 24.1173 143.597 22.624 144.792 20.96C149.144 14.9867 154.243 12 160.088 12C162.691 12 164.717 12.7893 166.168 14.368C167.661 15.9467 168.408 18.272 168.408 21.344C168.408 23.5627 168.195 25.8453 167.768 28.192C167.384 30.496 166.787 33.44 165.976 37.024C165.464 39.1573 165.08 40.8853 164.824 42.208C164.568 43.488 164.44 44.5547 164.44 45.408C164.44 47.584 164.824 49.1413 165.592 50.08C166.36 51.0187 167.704 51.488 169.624 51.488C171.928 51.488 174.275 50.2293 176.664 47.712C179.096 45.152 181.272 41.2907 183.192 36.128C185.155 30.9653 186.563 24.6507 187.416 17.184C187.629 15.3067 188.12 13.984 188.888 13.216C189.656 12.4053 190.765 12 192.216 12C195.203 12 196.696 13.4933 196.696 16.48C196.696 16.992 196.675 17.3973 196.632 17.696C195.736 24.0533 194.904 29.792 194.136 34.912C193.709 37.984 193.24 41.1413 192.728 44.384C192.259 47.6267 191.789 50.912 191.32 54.24C194.435 53.3867 197.72 52.6187 201.176 51.936ZM181.784 63.456C171.459 67.04 166.296 71.392 166.296 76.512C166.296 77.7067 166.659 78.688 167.384 79.456C168.152 80.2667 169.219 80.672 170.584 80.672C176.515 80.672 180.227 75.0827 181.72 63.904L181.784 63.456Z" fill="#FA541C"/>
<path d="M233.213 46.624C233.768 46.624 234.195 46.9013 234.493 47.456C234.792 48.0107 234.941 48.7147 234.941 49.568C234.941 51.616 234.323 52.832 233.085 53.216C230.525 54.112 227.709 54.624 224.637 54.752C223.827 58.336 222.227 61.216 219.837 63.392C217.448 65.5253 214.739 66.592 211.71 66.592C209.15 66.592 206.952 65.9733 205.117 64.736C203.325 63.4987 201.96 61.856 201.021 59.808C200.083 57.76 199.613 55.5413 199.613 53.152C199.613 49.9093 200.232 47.0293 201.469 44.512C202.707 41.952 204.413 39.968 206.589 38.56C208.765 37.1093 211.176 36.384 213.821 36.384C217.064 36.384 219.667 37.5147 221.629 39.776C223.635 41.9947 224.808 44.7467 225.149 48.032C227.155 47.904 229.544 47.4773 232.317 46.752C232.659 46.6667 232.957 46.624 233.213 46.624ZM212.221 59.808C213.587 59.808 214.76 59.2533 215.741 58.144C216.765 57.0347 217.448 55.4347 217.789 53.344C216.467 52.448 215.443 51.2747 214.717 49.824C214.035 48.3733 213.693 46.8373 213.693 45.216C213.693 44.5333 213.757 43.8507 213.885 43.168H213.565C211.859 43.168 210.429 44 209.277 45.664C208.168 47.2853 207.613 49.5893 207.613 52.576C207.613 54.9227 208.061 56.7147 208.957 57.952C209.896 59.1893 210.984 59.808 212.221 59.808Z" fill="#FA541C"/>
<path d="M236.104 66.592C234.099 66.592 232.478 65.7813 231.24 64.16C230.046 62.496 229.448 60.2133 229.448 57.312C229.448 54.112 229.662 51.1893 230.088 48.544C230.515 45.856 231.219 43.0187 232.2 40.032C232.627 38.752 233.224 37.8347 233.992 37.28C234.76 36.7253 235.976 36.448 237.64 36.448C238.579 36.448 239.219 36.5973 239.56 36.896C239.944 37.1947 240.136 37.6427 240.136 38.24C240.136 38.5813 239.902 39.7333 239.432 41.696C239.006 43.2747 238.664 44.704 238.408 45.984C237.555 50.464 237.128 53.4507 237.128 54.944C237.128 55.84 237.235 56.48 237.448 56.864C237.662 57.2053 238.003 57.376 238.472 57.376C239.112 57.376 239.923 56.736 240.904 55.456C241.886 54.1333 242.91 52.1707 243.976 49.568C245.086 46.9227 246.131 43.744 247.112 40.032C247.454 38.752 247.966 37.8347 248.648 37.28C249.374 36.7253 250.44 36.448 251.848 36.448C252.787 36.448 253.448 36.704 253.832 37.216C254.259 37.6853 254.472 38.4107 254.472 39.392C254.472 40.4587 254.387 41.6533 254.216 42.976C254.046 44.256 253.854 45.5787 253.64 46.944C253.214 49.6747 252.872 52.1707 252.616 54.432C252.36 56.6507 252.232 59.1893 252.232 62.048C252.232 63.6693 251.891 64.8427 251.208 65.568C250.568 66.2507 249.502 66.592 248.008 66.592C246.43 66.592 245.32 66.1867 244.68 65.376C244.083 64.5227 243.784 62.9013 243.784 60.512C243.784 60.0427 243.827 58.9973 243.912 57.376C243.187 60.3627 242.099 62.6453 240.648 64.224C239.24 65.8027 237.726 66.592 236.104 66.592Z" fill="#FA541C"/>
</svg>
