<svg width="20" height="20" viewBox="0 0 20 20" fill="none" xmlns="http://www.w3.org/2000/svg">
<path d="M18.75 13.61H1.25V14.86H18.75V13.61Z" fill="#637381"/>
<path d="M18.75 16.11H1.25V17.36H18.75V16.11Z" fill="#637381"/>
<path d="M15 6.11003C14.7528 6.11003 14.5111 6.18334 14.3055 6.32069C14.1 6.45805 13.9398 6.65327 13.8451 6.88168C13.7505 7.11008 13.7258 7.36142 13.774 7.60389C13.8222 7.84637 13.9413 8.0691 14.1161 8.24391C14.2909 8.41873 14.5137 8.53778 14.7561 8.58601C14.9986 8.63424 15.2499 8.60949 15.4784 8.51488C15.7068 8.42027 15.902 8.26005 16.0393 8.05449C16.1767 7.84893 16.25 7.60726 16.25 7.36003C16.25 7.02851 16.1183 6.71057 15.8839 6.47615C15.6495 6.24173 15.3315 6.11003 15 6.11003Z" fill="#637381"/>
<path d="M10 9.86003C9.50555 9.86003 9.0222 9.71341 8.61107 9.4387C8.19995 9.164 7.87952 8.77355 7.6903 8.31674C7.50108 7.85992 7.45157 7.35726 7.54804 6.8723C7.6445 6.38735 7.8826 5.94189 8.23223 5.59226C8.58186 5.24263 9.02732 5.00453 9.51227 4.90807C9.99723 4.8116 10.4999 4.86111 10.9567 5.05033C11.4135 5.23955 11.804 5.55998 12.0787 5.97111C12.3534 6.38223 12.5 6.86558 12.5 7.36003C12.4993 8.02284 12.2356 8.6583 11.7669 9.12698C11.2983 9.59565 10.6628 9.85929 10 9.86003ZM10 6.11003C9.75277 6.11003 9.5111 6.18334 9.30554 6.32069C9.09998 6.45805 8.93976 6.65327 8.84515 6.88168C8.75054 7.11008 8.72579 7.36142 8.77402 7.60389C8.82225 7.84637 8.9413 8.0691 9.11612 8.24391C9.29093 8.41873 9.51366 8.53778 9.75614 8.58601C9.99861 8.63424 10.2499 8.60949 10.4784 8.51488C10.7068 8.42027 10.902 8.26005 11.0393 8.05449C11.1767 7.84893 11.25 7.60726 11.25 7.36003C11.2497 7.02861 11.1179 6.71086 10.8835 6.47651C10.6492 6.24216 10.3314 6.11036 10 6.11003Z" fill="#637381"/>
<path d="M5 6.11003C4.75277 6.11003 4.5111 6.18334 4.30554 6.32069C4.09998 6.45805 3.93976 6.65327 3.84515 6.88168C3.75054 7.11008 3.72579 7.36142 3.77402 7.60389C3.82225 7.84637 3.9413 8.0691 4.11612 8.24391C4.29093 8.41873 4.51366 8.53778 4.75614 8.58601C4.99861 8.63424 5.24995 8.60949 5.47835 8.51488C5.70676 8.42027 5.90199 8.26005 6.03934 8.05449C6.17669 7.84893 6.25 7.60726 6.25 7.36003C6.25 7.02851 6.1183 6.71057 5.88388 6.47615C5.64946 6.24173 5.33152 6.11003 5 6.11003Z" fill="#637381"/>
<path d="M17.5 12.36H2.5C2.16874 12.3592 1.85128 12.2272 1.61705 11.993C1.38281 11.7587 1.25084 11.4413 1.25 11.11V3.61003C1.25084 3.27877 1.38281 2.96132 1.61705 2.72708C1.85128 2.49284 2.16874 2.36087 2.5 2.36003H17.5C17.8313 2.36087 18.1487 2.49284 18.383 2.72708C18.6172 2.96132 18.7492 3.27877 18.75 3.61003V11.11C18.7496 11.4414 18.6177 11.7591 18.3834 11.9934C18.1491 12.2277 17.8314 12.3596 17.5 12.36ZM17.5 3.61003H2.5V11.11H17.5V3.61003Z" fill="#637381"/>
</svg>
