<svg width="20" height="20" viewBox="0 0 20 20" fill="none" xmlns="http://www.w3.org/2000/svg">
<path d="M7.45 15.5875C8.50571 15.5942 9.55224 15.3911 10.5289 14.9902C11.5055 14.5893 12.3928 13.9984 13.1393 13.2519C13.8858 12.5054 14.4767 11.618 14.8777 10.6414C15.2786 9.66477 15.4816 8.61825 15.475 7.56254C15.475 7.43754 15.475 7.31879 15.475 7.19379C16.0222 6.79284 16.4959 6.30014 16.875 5.73754C16.3597 5.96291 15.8144 6.11238 15.2562 6.18129C15.8481 5.82865 16.2921 5.27358 16.5062 4.61879C15.9547 4.94969 15.3499 5.18231 14.7187 5.30629C14.2937 4.85339 13.7313 4.5532 13.1184 4.45215C12.5056 4.35111 11.8765 4.45485 11.3286 4.74732C10.7806 5.03979 10.3444 5.50469 10.0873 6.07009C9.83014 6.63548 9.76652 7.26985 9.90625 7.87504C8.78502 7.82 7.68794 7.52943 6.68647 7.02223C5.685 6.51503 4.80159 5.80259 4.09375 4.93129C3.73683 5.55077 3.62864 6.28274 3.7911 6.97899C3.95356 7.67524 4.37452 8.28374 4.96875 8.68129C4.53038 8.66438 4.10216 8.54448 3.71875 8.33129V8.36254C3.71485 9.00993 3.93295 9.63911 4.33669 10.1452C4.74043 10.6513 5.30542 11.0037 5.9375 11.1438C5.52977 11.2534 5.10268 11.2705 4.6875 11.1938C4.87049 11.7459 5.2198 12.2279 5.68753 12.5737C6.15526 12.9194 6.71849 13.112 7.3 13.125C6.30576 13.9254 5.07006 14.3659 3.79375 14.375C3.56997 14.3686 3.34672 14.3498 3.125 14.3188C4.41685 15.1418 5.91825 15.5758 7.45 15.5688" fill="#212B36"/>
</svg>
