<svg width="20" height="20" viewBox="0 0 20 20" fill="none" xmlns="http://www.w3.org/2000/svg">
<path d="M14.0037 6.89652C14.5007 6.89652 14.9037 6.49358 14.9037 5.99652C14.9037 5.49947 14.5007 5.09652 14.0037 5.09652C13.5066 5.09652 13.1037 5.49947 13.1037 5.99652C13.1037 6.49358 13.5066 6.89652 14.0037 6.89652Z" fill="#212B36"/>
<path d="M10.0004 6.14861C9.23866 6.14861 8.49403 6.37449 7.86068 6.79768C7.22732 7.22087 6.73368 7.82238 6.44218 8.52612C6.15068 9.22987 6.07441 10.0043 6.22302 10.7513C6.37162 11.4984 6.73843 12.1847 7.27705 12.7233C7.81568 13.2619 8.50193 13.6287 9.24902 13.7774C9.99611 13.926 10.7705 13.8497 11.4742 13.5582C12.178 13.2667 12.7795 12.773 13.2027 12.1397C13.6259 11.5063 13.8518 10.7617 13.8518 9.99998C13.8518 8.97853 13.446 7.99892 12.7237 7.27665C12.0014 6.55437 11.0218 6.14861 10.0004 6.14861ZM10.0004 12.5C9.50593 12.5 9.02258 12.3534 8.61146 12.0787C8.20034 11.804 7.87991 11.4135 7.69069 10.9567C7.50147 10.4999 7.45196 9.99721 7.54842 9.51226C7.64489 9.0273 7.88299 8.58185 8.23262 8.23221C8.58225 7.88258 9.02771 7.64448 9.51266 7.54802C9.99761 7.45155 10.5003 7.50106 10.9571 7.69028C11.4139 7.8795 11.8044 8.19993 12.0791 8.61106C12.3538 9.02218 12.5004 9.50553 12.5004 9.99998C12.5004 10.663 12.237 11.2989 11.7682 11.7677C11.2993 12.2366 10.6634 12.5 10.0004 12.5Z" fill="#212B36"/>
<path d="M10 3.85137C12.0026 3.85137 12.2398 3.859 13.0306 3.89513C13.5062 3.90079 13.9773 3.98814 14.4233 4.15337C14.7467 4.27818 15.0405 4.4693 15.2856 4.71444C15.5308 4.95958 15.7219 5.25331 15.8467 5.57675C16.0119 6.02276 16.0993 6.49384 16.1049 6.96944C16.141 7.76025 16.1487 7.9975 16.1487 10.0001C16.1487 12.0026 16.1411 12.2399 16.1049 13.0307C16.0993 13.5063 16.0119 13.9774 15.8467 14.4234C15.7219 14.7468 15.5308 15.0405 15.2856 15.2857C15.0405 15.5308 14.7467 15.7219 14.4233 15.8467C13.9773 16.012 13.5062 16.0993 13.0306 16.105C12.2399 16.1411 12.0027 16.1487 10 16.1487C7.99725 16.1487 7.76012 16.1411 6.96937 16.105C6.49378 16.0993 6.02269 16.012 5.57669 15.8467C5.25325 15.7219 4.95951 15.5308 4.71437 15.2857C4.46923 15.0405 4.27812 14.7468 4.15331 14.4234C3.98808 13.9774 3.90072 13.5063 3.89506 13.0307C3.859 12.2399 3.85131 12.0026 3.85131 10.0001C3.85131 7.9975 3.85894 7.76025 3.89506 6.96944C3.90072 6.49384 3.98808 6.02276 4.15331 5.57675C4.27811 5.2533 4.46922 4.95955 4.71436 4.7144C4.9595 4.46925 5.25324 4.27812 5.57669 4.15331C6.02269 3.98808 6.49378 3.90072 6.96937 3.89506C7.76019 3.859 7.99744 3.85137 10 3.85137ZM10 2.5C7.96312 2.5 7.70769 2.50862 6.90775 2.54512C6.28566 2.55761 5.67018 2.67549 5.0875 2.89375C4.58921 3.08645 4.13667 3.38112 3.7589 3.7589C3.38112 4.13667 3.08645 4.58921 2.89375 5.0875C2.67546 5.67028 2.55758 6.28586 2.54512 6.90806C2.50862 7.70769 2.5 7.96312 2.5 10C2.5 12.0369 2.50862 12.2923 2.54512 13.0922C2.55759 13.7144 2.67547 14.33 2.89375 14.9128C3.08645 15.4111 3.38112 15.8636 3.7589 16.2414C4.13667 16.6192 4.58921 16.9139 5.0875 17.1066C5.67028 17.3249 6.28586 17.4427 6.90806 17.4552C7.70769 17.4914 7.96312 17.5 10 17.5C12.0369 17.5 12.2923 17.4914 13.0922 17.4549C13.7144 17.4424 14.33 17.3245 14.9128 17.1062C15.4111 16.9136 15.8636 16.6189 16.2414 16.2411C16.6192 15.8633 16.9139 15.4108 17.1066 14.9125C17.3248 14.3297 17.4427 13.7141 17.4552 13.0919C17.4914 12.2923 17.5 12.0369 17.5 10C17.5 7.96312 17.4914 7.70769 17.4549 6.90775C17.4424 6.28566 17.3245 5.67018 17.1062 5.0875C16.9135 4.58927 16.6188 4.13679 16.2411 3.75907C15.8633 3.38135 15.4108 3.08672 14.9125 2.89406C14.3297 2.67578 13.7141 2.5579 13.0919 2.54544C12.2923 2.50863 12.0369 2.5 10 2.5Z" fill="#212B36"/>
</svg>
