<svg width="24" height="24" viewBox="0 0 24 24" fill="none" xmlns="http://www.w3.org/2000/svg">
<path d="M17.25 18H14.25V21H17.25V18Z" fill="#919EAB"/>
<path d="M22.5 18H19.5V21H22.5V18Z" fill="#919EAB"/>
<path d="M17.25 12.75H14.25V15.75H17.25V12.75Z" fill="#919EAB"/>
<path d="M22.5 12.75H19.5V15.75H22.5V12.75Z" fill="#919EAB"/>
<path d="M12.75 18H3V7.5H21V11.25H22.5V7.5C22.4995 7.10232 22.3414 6.72105 22.0602 6.43984C21.779 6.15864 21.3977 6.00046 21 6H16.5V3C16.4995 2.60232 16.3414 2.22105 16.0602 1.93984C15.779 1.65864 15.3977 1.50046 15 1.5H9C8.6023 1.5004 8.221 1.65856 7.93978 1.93978C7.65856 2.221 7.5004 2.6023 7.5 3V6H3C2.6023 6.0004 2.221 6.15856 1.93978 6.43978C1.65856 6.721 1.5004 7.1023 1.5 7.5V18C1.50046 18.3977 1.65864 18.779 1.93984 19.0602C2.22105 19.3414 2.60232 19.4995 3 19.5H12.75V18ZM9 3H15V6H9V3Z" fill="#919EAB"/>
</svg>
