<svg width="20" height="20" viewBox="0 0 20 20" fill="none" xmlns="http://www.w3.org/2000/svg">
<path d="M17.5 3.61003H2.5C2.16848 3.61003 1.85054 3.74172 1.61612 3.97614C1.3817 4.21056 1.25 4.5285 1.25 4.86003V14.86C1.25 15.1915 1.3817 15.5095 1.61612 15.7439C1.85054 15.9783 2.16848 16.11 2.5 16.11H17.5C17.8315 16.11 18.1495 15.9783 18.3839 15.7439C18.6183 15.5095 18.75 15.1915 18.75 14.86V4.86003C18.75 4.5285 18.6183 4.21056 18.3839 3.97614C18.1495 3.74172 17.8315 3.61003 17.5 3.61003V3.61003ZM16.125 4.86003L10 9.09752L3.875 4.86003H16.125ZM2.5 14.86V5.42878L9.64375 10.3725C9.74837 10.4451 9.87267 10.484 10 10.484C10.1273 10.484 10.2516 10.4451 10.3562 10.3725L17.5 5.42878V14.86H2.5Z" fill="#212B36"/>
</svg>
