<svg width="24" height="24" viewBox="0 0 24 24" fill="none" xmlns="http://www.w3.org/2000/svg">
<path d="M21.7502 20.6894L16.0861 15.0253C17.4471 13.3913 18.1258 11.2955 17.981 9.17387C17.8362 7.05224 16.8789 5.06812 15.3085 3.63426C13.738 2.20041 11.6752 1.42721 9.54918 1.47552C7.42316 1.52384 5.39761 2.38993 3.89389 3.89365C2.39018 5.39736 1.52408 7.42292 1.47577 9.54894C1.42746 11.675 2.20065 13.7378 3.63451 15.3082C5.06836 16.8787 7.05248 17.8359 9.17412 17.9808C11.2958 18.1256 13.3915 17.4469 15.0255 16.0859L20.6896 21.7499L21.7502 20.6894ZM3.00018 9.74993C3.00018 8.41491 3.39606 7.10987 4.13776 5.99983C4.87946 4.8898 5.93366 4.02464 7.16706 3.51375C8.40047 3.00285 9.75767 2.86918 11.067 3.12963C12.3764 3.39008 13.5791 4.03296 14.5231 4.97696C15.4672 5.92097 16.11 7.1237 16.3705 8.43307C16.6309 9.74245 16.4973 11.0996 15.9864 12.333C15.4755 13.5664 14.6103 14.6207 13.5003 15.3624C12.3902 16.1041 11.0852 16.4999 9.75018 16.4999C7.96058 16.4979 6.24484 15.7862 4.9794 14.5207C3.71396 13.2553 3.00216 11.5395 3.00018 9.74993V9.74993Z" fill="#919EAB"/>
</svg>
