<svg width="20" height="20" viewBox="0 0 20 20" fill="none" xmlns="http://www.w3.org/2000/svg">
<path d="M10 2.5C10.6181 2.5 11.2223 2.68328 11.7362 3.02666C12.2501 3.37004 12.6506 3.8581 12.8871 4.42911C13.1236 5.00013 13.1855 5.62847 13.065 6.23466C12.9444 6.84085 12.6467 7.39767 12.2097 7.83471C11.7727 8.27175 11.2158 8.56938 10.6097 8.68995C10.0035 8.81053 9.37513 8.74865 8.80411 8.51212C8.2331 8.2756 7.74504 7.87506 7.40166 7.36116C7.05828 6.84725 6.875 6.24307 6.875 5.625C6.875 4.7962 7.20424 4.00134 7.79029 3.41529C8.37634 2.82924 9.1712 2.5 10 2.5ZM10 1.25C9.13471 1.25 8.28884 1.50659 7.56938 1.98732C6.84991 2.46805 6.28916 3.15133 5.95803 3.95076C5.62689 4.75019 5.54025 5.62985 5.70906 6.47852C5.87787 7.32719 6.29455 8.10674 6.90641 8.71859C7.51826 9.33045 8.29781 9.74712 9.14648 9.91593C9.99515 10.0847 10.8748 9.99811 11.6742 9.66697C12.4737 9.33584 13.1569 8.77508 13.6377 8.05562C14.1184 7.33615 14.375 6.49029 14.375 5.625C14.375 4.46468 13.9141 3.35188 13.0936 2.53141C12.2731 1.71094 11.1603 1.25 10 1.25Z" fill="#637381"/>
<path d="M16.25 18.75H15V15.625C15 15.2146 14.9192 14.8083 14.7621 14.4291C14.6051 14.05 14.3749 13.7055 14.0847 13.4153C13.7945 13.1251 13.45 12.8949 13.0709 12.7379C12.6917 12.5808 12.2854 12.5 11.875 12.5H8.125C7.2962 12.5 6.50134 12.8292 5.91529 13.4153C5.32924 14.0013 5 14.7962 5 15.625V18.75H3.75V15.625C3.75 14.4647 4.21094 13.3519 5.03141 12.5314C5.85188 11.7109 6.96468 11.25 8.125 11.25H11.875C13.0353 11.25 14.1481 11.7109 14.9686 12.5314C15.7891 13.3519 16.25 14.4647 16.25 15.625V18.75Z" fill="#637381"/>
</svg>
